<svg viewBox="0 0 1200 1200" xmlns="http://www.w3.org/2000/svg" width="1200" height="1200">
  <rect width="1200" height="1200" fill="#1A1A1C"/>
  <rect x="0" y="0" width="8" height="1200" fill="#6B0F1A"/>
  <text x="80" y="120" font-family="Georgia,serif" font-size="16" fill="#C9A65A" letter-spacing="3">MONITOR DE LICITAÇÕES</text>
  <text x="80" y="240" font-family="Georgia,serif" font-size="82" fill="#FFFFFF" font-weight="700">R$ 2 trilhões</text>
  <text x="80" y="330" font-family="Georgia,serif" font-size="46" fill="#C9A65A" font-weight="700">em licitações por ano.</text>
  <text x="80" y="410" font-family="Arial,sans-serif" font-size="26" fill="#9AA0A6">Sua empresa está participando?</text>
  <line x1="80" y1="460" x2="500" y2="460" stroke="#2A2A2C" stroke-width="1"/>
  <!-- Stats grid -->
  <g transform="translate(80,490)">
    <rect width="500" height="120" rx="10" fill="#232325" stroke="#2A2A2C" stroke-width="1"/>
    <rect x="0" y="0" width="5" height="120" rx="2" fill="#C9A65A"/>
    <text x="24" y="44" font-family="Georgia,serif" font-size="42" fill="#FFFFFF" font-weight="700">10+</text>
    <text x="24" y="78" font-family="Arial,sans-serif" font-size="18" fill="#9AA0A6">portais monitorados</text>
    <text x="24" y="108" font-family="Arial,sans-serif" font-size="14" fill="#555">PNCP · ComprasNet · BLL · Licitanet · e mais</text>
  </g>
  <g transform="translate(620,490)">
    <rect width="500" height="120" rx="10" fill="#232325" stroke="#2A2A2C" stroke-width="1"/>
    <rect x="0" y="0" width="5" height="120" rx="2" fill="#60a5fa"/>
    <text x="24" y="44" font-family="Georgia,serif" font-size="42" fill="#FFFFFF" font-weight="700">24/7</text>
    <text x="24" y="78" font-family="Arial,sans-serif" font-size="18" fill="#9AA0A6">monitoramento contínuo</text>
    <text x="24" y="108" font-family="Arial,sans-serif" font-size="14" fill="#555">Novos editais capturados automaticamente</text>
  </g>
  <g transform="translate(80,630)">
    <rect width="500" height="120" rx="10" fill="#232325" stroke="#2A2A2C" stroke-width="1"/>
    <rect x="0" y="0" width="5" height="120" rx="2" fill="#25D366"/>
    <text x="24" y="44" font-family="Georgia,serif" font-size="42" fill="#FFFFFF" font-weight="700">3</text>
    <text x="24" y="78" font-family="Arial,sans-serif" font-size="18" fill="#9AA0A6">canais de alerta</text>
    <text x="24" y="108" font-family="Arial,sans-serif" font-size="14" fill="#555">E-mail · WhatsApp · Telegram</text>
  </g>
  <g transform="translate(620,630)">
    <rect width="500" height="120" rx="10" fill="#232325" stroke="#2A2A2C" stroke-width="1"/>
    <rect x="0" y="0" width="5" height="120" rx="2" fill="#6B0F1A"/>
    <text x="24" y="44" font-family="Georgia,serif" font-size="42" fill="#C9A65A" font-weight="700">7 dias</text>
    <text x="24" y="78" font-family="Arial,sans-serif" font-size="18" fill="#9AA0A6">de teste gratuito</text>
    <text x="24" y="108" font-family="Arial,sans-serif" font-size="14" fill="#555">Sem cartão · Cancele quando quiser</text>
  </g>
  <!-- Edital cards -->
  <g transform="translate(80,780)">
    <rect width="1040" height="100" rx="10" fill="#232325" stroke="#2A2A2C" stroke-width="1"/>
    <rect x="0" y="0" width="5" height="100" rx="2" fill="#60a5fa"/>
    <text x="24" y="32" font-family="Arial,sans-serif" font-size="13" fill="#60a5fa" font-weight="700">TI &amp; SOFTWARE</text>
    <text x="24" y="58" font-family="Arial,sans-serif" font-size="16" fill="#FFFFFF" font-weight="700">Fornecimento de licenças Microsoft 365</text>
    <text x="24" y="80" font-family="Arial,sans-serif" font-size="13" fill="#9AA0A6">Tribunal Regional do Trabalho — 3ª Região</text>
    <text x="700" y="58" font-family="Arial,sans-serif" font-size="16" fill="#C9A65A" font-weight="700">R$ 342.000</text>
    <text x="700" y="80" font-family="Arial,sans-serif" font-size="13" fill="#9AA0A6">Abertura 25/06/2026</text>
  </g>
  <g transform="translate(80,900)">
    <rect width="1040" height="100" rx="10" fill="#232325" stroke="#2A2A2C" stroke-width="1"/>
    <rect x="0" y="0" width="5" height="100" rx="2" fill="#C9A65A"/>
    <text x="24" y="32" font-family="Arial,sans-serif" font-size="13" fill="#C9A65A" font-weight="700">CONSTRUÇÃO CIVIL</text>
    <text x="24" y="58" font-family="Arial,sans-serif" font-size="16" fill="#FFFFFF" font-weight="700">Reforma e ampliação de unidade escolar</text>
    <text x="24" y="80" font-family="Arial,sans-serif" font-size="13" fill="#9AA0A6">Secretaria Estadual de Educação — SP</text>
    <text x="700" y="58" font-family="Arial,sans-serif" font-size="16" fill="#C9A65A" font-weight="700">R$ 1.850.000</text>
    <text x="700" y="80" font-family="Arial,sans-serif" font-size="13" fill="#9AA0A6">Abertura 28/06/2026</text>
  </g>
  <g transform="translate(80,1020)">
    <rect width="1040" height="100" rx="10" fill="#232325" stroke="#2A2A2C" stroke-width="1"/>
    <rect x="0" y="0" width="5" height="100" rx="2" fill="#4CAF50"/>
    <text x="24" y="32" font-family="Arial,sans-serif" font-size="13" fill="#4CAF50" font-weight="700">SAÚDE</text>
    <text x="24" y="58" font-family="Arial,sans-serif" font-size="16" fill="#FFFFFF" font-weight="700">Equipamentos odontológicos e insumos</text>
    <text x="24" y="80" font-family="Arial,sans-serif" font-size="13" fill="#9AA0A6">Prefeitura de Campinas — Secretaria de Saúde</text>
    <text x="700" y="58" font-family="Arial,sans-serif" font-size="16" fill="#C9A65A" font-weight="700">R$ 620.000</text>
    <text x="700" y="80" font-family="Arial,sans-serif" font-size="13" fill="#9AA0A6">Abertura 30/06/2026</text>
  </g>
  <text x="80" y="1170" font-family="Arial,sans-serif" font-size="16" fill="#555555">monitordelicitacoes.com.br</text>
  <text x="1150" y="1170" font-family="Arial,sans-serif" font-size="40" fill="#6B0F1A" font-weight="900" text-anchor="end">ML</text>
</svg>
